HIERARCHY
ROOT hip
{
  OFFSET 0 0 0
  CHANNELS 6 Xposition Yposition Zposition Zrotation Yrotation Xrotation
  JOINT abdomen
  {
    OFFSET 0 20.6881 -0.73152
    CHANNELS 3 Zrotation Xrotation Yrotation
    JOINT chest
    {
      OFFSET 0 11.7043 -0.48768
      CHANNELS 3 Zrotation Xrotation Yrotation
      JOINT neck
      {
        OFFSET 0 22.1894 -2.19456
        CHANNELS 3 Zrotation Xrotation Yrotation
        JOINT head
        {
          OFFSET -0.24384 7.07133 1.2192
          CHANNELS 3 Zrotation Xrotation Yrotation
          JOINT leftEye
          {
            OFFSET 4.14528 8.04674 8.04672
            CHANNELS 3 Zrotation Xrotation Yrotation
            End Site
            {
              OFFSET 1 0 0
            }
          }
          JOINT rightEye
          {
            OFFSET -3.6576 8.04674 8.04672
            CHANNELS 3 Zrotation Xrotation Yrotation
            End Site
            {
              OFFSET 1 0 0
            }
          }
        }
      }
      JOINT rCollar
      {
        OFFSET -2.68224 19.2634 -4.8768
        CHANNELS 3 Zrotation Xrotation Yrotation
        JOINT rShldr
        {
          OFFSET -8.77824 -1.95073 1.46304
          CHANNELS 3 Zrotation Xrotation Yrotation
          JOINT rForeArm
          {
            OFFSET -28.1742 -1.7115 0.48768
            CHANNELS 3 Zrotation Xrotation Yrotation
            JOINT rHand
            {
              OFFSET -22.5879 0.773209 7.07136
              CHANNELS 3 Zrotation Xrotation Yrotation
              JOINT rThumb1
              {
                OFFSET -1.2192 -0.487915 3.41376
                CHANNELS 3 Zrotation Xrotation Yrotation
                JOINT rThumb2
                {
                  OFFSET -3.37035 -0.52449 3.41376
                  CHANNELS 3 Zrotation Xrotation Yrotation
                  End Site
                  {
                    OFFSET -1.78271 -1.18214 1.43049
                  }
                }
              }
              JOINT rIndex1
              {
                OFFSET -7.75947 0.938293 5.60832
                CHANNELS 3 Zrotation Xrotation Yrotation
                JOINT rIndex2
                {
                  OFFSET -2.54057 -0.884171 1.56538
                  CHANNELS 3 Zrotation Xrotation Yrotation
                  End Site
                  {
                    OFFSET -1.62519 -0.234802 1.16502
                  }
                }
              }
              JOINT rMid1
              {
                OFFSET -8.24714 1.18213 3.41376
                CHANNELS 3 Zrotation Xrotation Yrotation
                JOINT rMid2
                {
                  OFFSET -3.10165 -0.590103 1.0647
                  CHANNELS 3 Zrotation Xrotation Yrotation
                  End Site
                  {
                    OFFSET -2.48547 -0.328903 0.83742
                  }
                }
              }
              JOINT rRing1
              {
                OFFSET -8.82822 0.546677 1.51678
                CHANNELS 3 Zrotation Xrotation Yrotation
                JOINT rRing2
                {
                  OFFSET -2.60934 -0.819778 -0.0198488
                  CHANNELS 3 Zrotation Xrotation Yrotation
                  End Site
                  {
                    OFFSET -2.33842 -0.294052 0.168128
                  }
                }
              }
              JOINT rPinky1
              {
                OFFSET -8.27202 -0.0477905 -0.4584
                CHANNELS 3 Zrotation Xrotation Yrotation
                JOINT rPinky2
                {
                  OFFSET -1.82734 -0.647385 -0.700984
                  CHANNELS 3 Zrotation Xrotation Yrotation
                  End Site
                  {
                    OFFSET -1.69225 -0.51767 -0.607171
                  }
                }
              }
            }
          }
        }
      }
      JOINT lCollar
      {
        OFFSET 2.68224 19.2634 -4.8768
        CHANNELS 3 Zrotation Xrotation Yrotation
        JOINT lShldr
        {
          OFFSET 8.77824 -1.95073 1.46304
          CHANNELS 3 Zrotation Xrotation Yrotation
          JOINT lForeArm
          {
            OFFSET 28.1742 -1.7115 0.48768
            CHANNELS 3 Zrotation Xrotation Yrotation
            JOINT lHand
            {
              OFFSET 22.5879 0.773209 7.07136
              CHANNELS 3 Zrotation Xrotation Yrotation
              JOINT lThumb1
              {
                OFFSET 1.2192 -0.487915 3.41376
                CHANNELS 3 Zrotation Xrotation Yrotation
                JOINT lThumb2
                {
                  OFFSET 3.37035 -0.52449 3.41376
                  CHANNELS 3 Zrotation Xrotation Yrotation
                  End Site
                  {
                    OFFSET 1.78271 -1.18214 1.43049
                  }
                }
              }
              JOINT lIndex1
              {
                OFFSET 7.75947 0.938293 5.60832
                CHANNELS 3 Zrotation Xrotation Yrotation
                JOINT lIndex2
                {
                  OFFSET 2.54057 -0.884171 1.56538
                  CHANNELS 3 Zrotation Xrotation Yrotation
                  End Site
                  {
                    OFFSET 1.62519 -0.234802 1.16502
                  }
                }
              }
              JOINT lMid1
              {
                OFFSET 8.24714 1.18213 3.41376
                CHANNELS 3 Zrotation Xrotation Yrotation
                JOINT lMid2
                {
                  OFFSET 3.10165 -0.590103 1.0647
                  CHANNELS 3 Zrotation Xrotation Yrotation
                  End Site
                  {
                    OFFSET 2.48547 -0.328903 0.83742
                  }
                }
              }
              JOINT lRing1
              {
                OFFSET 8.82822 0.546677 1.51678
                CHANNELS 3 Zrotation Xrotation Yrotation
                JOINT lRing2
                {
                  OFFSET 2.60934 -0.819778 -0.0198488
                  CHANNELS 3 Zrotation Xrotation Yrotation
                  End Site
                  {
                    OFFSET 2.33842 -0.294052 0.168128
                  }
                }
              }
              JOINT lPinky1
              {
                OFFSET 8.27202 -0.0477905 -0.4584
                CHANNELS 3 Zrotation Xrotation Yrotation
                JOINT lPinky2
                {
                  OFFSET 1.82734 -0.647385 -0.700984
                  CHANNELS 3 Zrotation Xrotation Yrotation
                  End Site
                  {
                    OFFSET 1.69225 -0.51767 -0.607171
                  }
                }
              }
            }
          }
        }
      }
    }
  }
  JOINT rButtock
  {
    OFFSET -8.77824 4.35084 1.2192
    CHANNELS 3 Zrotation Xrotation Yrotation
    JOINT rThigh
    {
      OFFSET 0 -1.70687 -2.19456
      CHANNELS 3 Zrotation Xrotation Yrotation
      JOINT rShin
      {
        OFFSET 0 -36.8199 0.73152
        CHANNELS 3 Zrotation Xrotation Yrotation
        JOINT rFoot
        {
          OFFSET 0.73152 -45.1104 -5.12064
          CHANNELS 3 Zrotation Xrotation Yrotation
          End Site
          {
            OFFSET -1.1221 -3.69964 12.103
          }
        }
      }
    }
  }
  JOINT lButtock
  {
    OFFSET 8.77824 4.35084 1.2192
    CHANNELS 3 Zrotation Xrotation Yrotation
    JOINT lThigh
    {
      OFFSET 0 -1.70687 -2.19456
      CHANNELS 3 Zrotation Xrotation Yrotation
      JOINT lShin
      {
        OFFSET 0 -36.8199 0.73152
        CHANNELS 3 Zrotation Xrotation Yrotation
        JOINT lFoot
        {
          OFFSET -0.73152 -45.1104 -5.12064
          CHANNELS 3 Zrotation Xrotation Yrotation
          End Site
          {
            OFFSET 1.1221 -3.69964 12.103
          }
        }
      }
    }
  }
}
MOTION
Frames:	7
Frame Time:	0.00833333
-14.4273 77.8888 84.0997 -180.418 15.5981 -178.955 -8.13502 9.03123 1.50873 1.62035 -11.9652 0.476434 -8.65361 5.48753 -12.422 12.2443 -10.8176 -21.3898 -0.0 0.0 0.0 -0.0 0.0 0.0 2.39576e-15 -1.09095e-14 -2.36982e-13 11.9082 11.1226 11.0164 -20.6424 -13.8452 40.2501 -0.115838 -9.55876 -1.3565 2.92911e-10 5.24908e-11 1.22212e-10 5.03095e-10 9.51027e-11 2.12723e-10 2.9291e-10 5.24903e-11 1.22195e-10 7.73091 5.47488 0.417314 2.92911e-10 5.24872e-11 1.22204e-10 2.90554 0.965183 0.102902 2.92915e-10 5.24867e-11 1.22207e-10 10.2786 0.731801 0.0259123 2.92903e-10 5.24904e-11 1.22205e-10 2.22167 -0.733487 -0.20892 2.51352e-15 -1.09215e-14 -2.37197e-13 -1.58032 47.5173 -2.49096 24.8265 -48.2467 -100.551 0.189875 -12.3297 1.76029 -4.07574e-10 6.81269e-10 8.07376e-10 -7.106e-10 1.19285e-09 1.39129e-09 -4.07578e-10 6.81267e-10 8.07396e-10 -7.73091 5.47488 -0.417314 -4.07573e-10 6.81268e-10 8.07379e-10 -2.90554 0.965183 -0.102902 -4.07579e-10 6.81268e-10 8.07376e-10 -10.2786 0.731801 -0.0259123 -4.07566e-10 6.81272e-10 8.07369e-10 -2.22167 -0.733487 0.20892 -2.03217e-16 0.0 -3.88251e-19 85.8091 -38.8891 101.206 -177.1 54.7304 177.765 -3.7894 35.4299 8.49762 2.03217e-16 0.0 3.88251e-19 3.61733 -13.3837 19.6694 0.15132 42.3698 -1.69094 3.32678 -20.3023 6.8233
-14.3418 77.9666 84.183 -180.262 15.4525 -178.59 -7.94567 8.58862 1.11091 1.64083 -11.9044 0.367071 -8.72736 5.39132 -12.4014 12.1021 -10.3087 -21.3629 -0.0 0.0 0.0 -0.0 0.0 0.0 2.76881e-15 4.50943e-16 -3.52644e-13 11.963 10.9479 10.9631 -20.1984 -13.2656 39.1524 -0.122541 -9.73361 -1.3821 -2.28165e-10 9.54056e-10 -5.55261e-11 -3.98446e-10 1.65137e-09 -9.77697e-11 -2.28165e-10 9.54063e-10 -5.55378e-11 7.73091 5.47488 0.417314 -2.28166e-10 9.54052e-10 -5.55299e-11 2.90554 0.965183 0.102902 -2.28161e-10 9.54052e-10 -5.5527e-11 10.2786 0.731801 0.0259123 -2.28174e-10 9.54056e-10 -5.55269e-11 2.22167 -0.733487 -0.20892 2.83466e-15 4.44196e-16 -3.52793e-13 -0.755351 47.8502 -2.94367 24.5303 -48.6802 -101.561 0.207514 -12.884 1.84207 -3.29832e-10 9.06767e-10 1.74479e-09 -5.83243e-10 1.59843e-09 3.01247e-09 -3.29837e-10 9.06765e-10 1.74481e-09 -7.73091 5.47488 -0.417314 -3.29831e-10 9.06766e-10 1.7448e-09 -2.90554 0.965183 -0.102902 -3.29835e-10 9.06766e-10 1.74479e-09 -10.2786 0.731801 -0.0259123 -3.29823e-10 9.0677e-10 1.74479e-09 -2.22167 -0.733487 0.20892 -2.03217e-16 0.0 -3.88251e-19 83.6008 -41.0404 98.3817 -176.964 57.5355 177.623 -3.3182 32.9273 7.93851 2.03217e-16 0.0 3.88251e-19 4.09496 -13.8607 20.1504 0.162152 42.577 -1.6577 3.06325 -19.9444 6.33337
-14.2469 78.0493 84.2714 -180.122 15.3086 -178.225 -7.75754 8.1675 0.722997 1.66696 -11.8409 0.261113 -8.81663 5.29078 -12.382 11.9886 -9.84604 -21.3306 -0.0 0.0 0.0 -0.0 0.0 0.0 -7.77568e-16 5.12694e-15 -4.19554e-13 12.022 10.6034 10.9452 -19.7159 -12.6582 37.9922 -0.123894 -9.78918 -1.39011 -6.33647e-10 1.47506e-09 -2.62445e-10 -1.09875e-09 2.54838e-09 -4.58016e-10 -6.33644e-10 1.47508e-09 -2.62452e-10 7.73091 5.47488 0.417314 -6.33647e-10 1.47506e-09 -2.62445e-10 2.90554 0.965183 0.102902 -6.33642e-10 1.47506e-09 -2.62443e-10 10.2786 0.731801 0.0259123 -6.33655e-10 1.47506e-09 -2.6244e-10 2.22167 -0.733487 -0.20892 -7.70822e-16 5.12605e-15 -4.19638e-13 0.124899 48.161 -3.46243 24.2455 -49.0778 -102.5 0.225579 -13.4164 1.92105 -1.90893e-10 9.91674e-10 2.37778e-09 -3.48047e-10 1.75565e-09 4.1081e-09 -1.90898e-10 9.91673e-10 2.37779e-09 -7.73091 5.47488 -0.417314 -1.90893e-10 9.91673e-10 2.37778e-09 -2.90554 0.965183 -0.102902 -1.90895e-10 9.91673e-10 2.37778e-09 -10.2786 0.731801 -0.0259123 -1.90883e-10 9.91677e-10 2.37777e-09 -2.22167 -0.733487 0.20892 -2.03217e-16 0.0 -3.88251e-19 81.0063 -43.0884 95.152 -176.787 60.5326 177.435 -2.85014 30.4826 7.26528 2.03217e-16 0.0 3.88251e-19 4.63599 -14.3447 20.7258 0.174584 42.8183 -1.62477 2.76625 -19.5316 5.75433
-14.1425 78.1313 84.3626 -180.004 15.1599 -177.865 -7.59411 7.78242 0.34602 1.70827 -11.7613 0.159079 -8.90939 5.20347 -12.3682 11.9226 -9.49558 -21.3025 -0.0 0.0 0.0 -0.0 0.0 0.0 -7.55882e-15 -5.98295e-16 -4.0229e-13 12.087 10.1948 10.9195 -19.2089 -12.0483 36.7926 -0.107006 -9.28879 -1.31713 -7.26455e-10 1.37022e-09 -2.51337e-10 -1.25812e-09 2.36448e-09 -4.40108e-10 -7.26451e-10 1.37024e-09 -2.5134e-10 7.73091 5.47488 0.417314 -7.26455e-10 1.37022e-09 -2.51334e-10 2.90554 0.965183 0.102902 -7.26449e-10 1.37021e-09 -2.51332e-10 10.2786 0.731801 0.0259123 -7.26462e-10 1.37022e-09 -2.51327e-10 2.22167 -0.733487 -0.20892 -7.59903e-15 -5.94801e-16 -4.0234e-13 1.02068 48.424 -4.01567 23.9727 -49.4319 -103.371 0.24194 -13.8707 1.9888 -3.5367e-11 9.02604e-10 2.45927e-09 -7.9911e-11 1.60324e-09 4.25075e-09 -3.53729e-11 9.02603e-10 2.45928e-09 -7.73091 5.47488 -0.417314 -3.53674e-11 9.02604e-10 2.45927e-09 -2.90554 0.965183 -0.102902 -3.53689e-11 9.02603e-10 2.45927e-09 -10.2786 0.731801 -0.0259123 -3.53572e-11 9.02607e-10 2.45926e-09 -2.22167 -0.733487 0.20892 -2.03217e-16 0.0 -3.88251e-19 78.0843 -44.9017 91.6073 -176.558 63.656 177.192 -2.37542 28.1958 6.40343 2.03217e-16 0.0 3.88251e-19 5.25399 -14.855 21.3937 0.19028 43.1548 -1.59467 2.42574 -19.072 5.0453
-14.0289 78.2076 84.4556 -179.91 14.9994 -177.517 -7.45751 7.42675 -0.0199754 1.76552 -11.6562 0.0611641 -9.00781 5.12711 -12.3593 11.9038 -9.28131 -21.2751 -0.0 0.0 0.0 -0.0 0.0 0.0 -2.06313e-14 -2.25967e-14 -2.48688e-13 12.1576 9.68962 10.8856 -18.6713 -11.431 35.5353 -0.077204 -8.07705 -1.14193 -2.85716e-10 1.84287e-10 1.10816e-10 -4.9455e-10 3.13145e-10 1.86682e-10 -2.85712e-10 1.84313e-10 1.10815e-10 7.73091 5.47488 0.417314 -2.85717e-10 1.84285e-10 1.1082e-10 2.90554 0.965183 0.102902 -2.85712e-10 1.84285e-10 1.10821e-10 10.2786 0.731801 0.0259123 -2.85722e-10 1.84288e-10 1.10825e-10 2.22167 -0.733487 -0.20892 -2.07069e-14 -2.25906e-14 -2.48756e-13 1.92444 48.6145 -4.60536 23.7206 -49.7423 -104.156 0.255942 -14.2502 2.04556 1.62444e-10 5.14501e-10 1.63455e-09 2.68342e-10 9.19308e-10 2.8277e-09 1.62438e-10 5.14501e-10 1.63457e-09 -7.73091 5.47488 -0.417314 1.62443e-10 5.14501e-10 1.63456e-09 -2.90554 0.965183 -0.102902 1.6244e-10 5.145e-10 1.63456e-09 -10.2786 0.731801 -0.0259123 1.62453e-10 5.14504e-10 1.63455e-09 -2.22167 -0.733487 0.20892 -2.03217e-16 0.0 -3.88251e-19 74.8891 -46.4546 87.8238 -176.25 66.9129 176.862 -1.88049 26.0654 5.23923 2.03217e-16 0.0 3.88251e-19 5.93319 -15.3936 22.1396 0.208558 43.5737 -1.56653 2.04569 -18.5621 4.19947
-13.9026 78.2766 84.5486 -179.834 14.8227 -177.188 -7.33528 7.09639 -0.375736 1.83433 -11.5347 -0.032907 -9.11654 5.05467 -12.3537 11.9242 -9.16595 -21.2445 -0.0 0.0 0.0 -0.0 0.0 0.0 -3.92804e-14 -5.72591e-14 8.12222e-15 12.2333 9.05165 10.8637 -18.0939 -10.793 34.2165 -0.0492269 -6.39954 -0.901945 5.27353e-10 -1.82196e-09 6.69803e-10 9.13653e-10 -3.15604e-09 1.15526e-09 5.27357e-10 -1.82193e-09 6.69804e-10 7.73091 5.47488 0.417314 5.27353e-10 -1.82196e-09 6.69808e-10 2.90554 0.965183 0.102902 5.27357e-10 -1.82196e-09 6.69807e-10 10.2786 0.731801 0.0259123 5.2735e-10 -1.82196e-09 6.6981e-10 2.22167 -0.733487 -0.20892 -3.93882e-14 -5.72511e-14 8.00419e-15 2.85411 48.751 -5.24309 23.4937 -50.0184 -104.848 0.268115 -14.5788 2.0948 4.138e-10 -1.16112e-10 1.31681e-10 7.14274e-10 -1.94944e-10 2.33134e-10 4.13794e-10 -1.1611e-10 1.31702e-10 -7.73091 5.47488 -0.417314 4.138e-10 -1.16111e-10 1.31688e-10 -2.90554 0.965183 -0.102902 4.13794e-10 -1.16111e-10 1.31686e-10 -10.2786 0.731801 -0.0259123 4.13809e-10 -1.16109e-10 1.31682e-10 -2.22167 -0.733487 0.20892 -2.03217e-16 0.0 -3.88251e-19 71.3929 -47.781 83.7666 -175.805 70.3294 176.389 -1.41283 24.037 3.85126 2.03217e-16 0.0 3.88251e-19 6.6789 -15.947 22.9713 0.228728 44.0521 -1.53945 1.63867 -17.9966 3.24022
-13.7603 78.3347 84.64 -179.77 14.6292 -176.887 -7.22842 6.80961 -0.721478 1.91653 -11.4108 -0.123316 -9.22734 4.99656 -12.3539 11.9909 -9.12354 -21.2184 -0.0 0.0 0.0 -0.0 0.0 0.0 -5.71653e-14 -9.40805e-14 2.75618e-13 12.3145 8.38119 10.8413 -17.4919 -10.1537 32.8788 -0.0261824 -4.42101 -0.621712 1.3367e-09 -3.81984e-09 1.242e-09 2.3157e-09 -6.6106e-09 2.14681e-09 1.33671e-09 -3.81981e-09 1.242e-09 7.73091 5.47488 0.417314 1.3367e-09 -3.81984e-09 1.242e-09 2.90554 0.965183 0.102902 1.33671e-09 -3.81984e-09 1.242e-09 10.2786 0.731801 0.0259123 1.3367e-09 -3.81984e-09 1.242e-09 2.22167 -0.733487 -0.20892 -5.72946e-14 -9.40715e-14 2.75448e-13 3.80767 48.8729 -5.91143 23.2858 -50.2658 -105.471 0.277608 -14.8315 2.13275 6.52436e-10 -7.50251e-10 -1.42229e-09 1.13857e-09 -1.31618e-09 -2.44991e-09 6.5243e-10 -7.50249e-10 -1.42227e-09 -7.73091 5.47488 -0.417314 6.52436e-10 -7.5025e-10 -1.42228e-09 -2.90554 0.965183 -0.102902 6.52427e-10 -7.5025e-10 -1.42229e-09 -10.2786 0.731801 -0.0259123 6.52444e-10 -7.50248e-10 -1.42229e-09 -2.22167 -0.733487 0.20892 -2.03217e-16 0.0 -3.88251e-19 67.5863 -48.8563 79.4308 -175.133 73.868 175.688 -1.02917 22.1369 2.4405 2.03217e-16 0.0 3.88251e-19 7.53852 -16.5107 23.921 0.252372 44.6359 -1.51591 1.20867 -17.3805 2.17215
